<?xml version="1.0" standalone="no"?>
<!DOCTYPE svg PUBLIC "-//W3C//DTD SVG 20010904//EN"
 "http://www.w3.org/TR/2001/REC-SVG-20010904/DTD/svg10.dtd">
<svg version="1.0" xmlns="http://www.w3.org/2000/svg"
 width="431.000000pt" height="314.000000pt" viewBox="0 0 431.000000 314.000000"
 preserveAspectRatio="xMidYMid meet">

<g transform="translate(0.000000,314.000000) scale(0.100000,-0.100000)"
fill="#000000" stroke="none">
<path d="M1077 2971 c-21 -60 -21 -71 -2 -71 14 0 15 -123 13 -1122 l-3 -1123
1463 3 c1333 2 1462 1 1462 -13 0 -17 5 -17 80 10 31 11 33 14 15 20 -11 5
-35 14 -54 21 -41 17 -41 17 -41 -1 0 -13 -153 -15 -1322 -14 -1169 1 -1312 3
-1228 15 87 13 704 88 1220 149 408 48 980 105 1063 105 51 0 77 14 60 31 -9
9 -80 6 -310 -15 -164 -15 -315 -30 -335 -33 l-37 -5 15 47 c18 62 18 65 -6
65 -17 0 -20 7 -21 43 -1 23 -5 53 -9 67 -6 15 -7 -3 -3 -47 5 -63 3 -73 -11
-73 -20 0 -20 -3 5 -51 11 -23 18 -43 16 -45 -2 -3 -197 -27 -433 -54 -236
-28 -610 -73 -832 -100 -222 -28 -406 -50 -410 -50 -4 1 20 11 53 24 158 61
390 191 566 316 250 179 392 313 637 600 196 229 363 400 526 540 210 178 458
351 553 384 40 14 59 46 26 46 -10 0 -54 -18 -97 -41 -163 -83 -371 -239 -615
-457 -69 -62 -70 -62 -60 -30 12 45 11 58 -5 58 -18 0 -22 19 -38 185 -7 72
-14 117 -16 100 -1 -16 4 -87 11 -157 12 -122 12 -128 -5 -128 -23 0 -22 -5 6
-60 l24 -45 -96 -100 c-52 -55 -161 -179 -242 -275 -275 -326 -535 -551 -866
-745 -213 -126 -474 -226 -646 -250 l-48 -6 0 1105 0 1106 21 0 c22 0 21 9
-10 83 l-16 38 -18 -50z"/>
<path d="M420 2720 c-10 -6 -11 -10 -2 -10 8 0 12 -17 12 -49 0 -30 -5 -51
-12 -54 -7 -3 3 -5 22 -5 19 0 29 2 23 5 -9 3 -13 26 -13 64 0 60 -4 66 -30
49z"/>
<path d="M500 2711 c-23 -44 -5 -111 30 -111 23 0 40 28 40 65 0 37 -17 65
-40 65 -11 0 -24 -9 -30 -19z m45 -47 c0 -37 -4 -49 -15 -49 -16 0 -27 63 -16
92 12 31 31 6 31 -43z"/>
<path d="M602 2718 c-7 -7 -12 -31 -12 -54 0 -82 62 -86 68 -5 4 59 -25 90
-56 59z m48 -53 c0 -38 -20 -61 -38 -43 -15 15 -15 71 0 86 18 18 38 -5 38
-43z"/>
<path d="M741 2711 c-26 -49 0 -127 35 -105 28 16 38 59 22 91 -16 34 -43 41
-57 14z m49 -46 c0 -18 -7 -38 -15 -45 -12 -10 -16 -8 -25 15 -13 33 -13 42 1
66 15 29 39 6 39 -36z"/>
<path d="M842 2718 c-28 -36 -20 -102 14 -115 22 -8 44 22 44 60 0 54 -33 85
-58 55z m42 -32 c3 -14 1 -37 -4 -51 -9 -23 -13 -25 -25 -15 -18 15 -20 71 -3
88 15 15 24 8 32 -22z"/>
<path d="M931 2711 c-26 -49 0 -127 35 -105 28 16 38 59 22 91 -16 34 -43 41
-57 14z m49 -46 c0 -18 -7 -38 -15 -45 -12 -10 -16 -8 -25 15 -13 33 -13 42 1
66 15 29 39 6 39 -36z"/>
<path d="M2570 2655 c0 -37 4 -65 10 -65 6 0 10 11 10 24 0 18 7 25 30 30 25
5 30 10 30 35 0 30 -14 41 -56 41 -23 0 -24 -3 -24 -65z m60 45 c18 -11 3 -43
-24 -48 -12 -3 -16 4 -16 27 0 32 13 39 40 21z"/>
<path d="M2682 2635 c1 -43 2 -45 5 -13 3 24 12 43 26 53 22 15 22 15 -6 13
-26 -2 -27 -5 -25 -53z"/>
<path d="M2744 2665 c-15 -23 -15 -27 0 -50 9 -14 25 -25 36 -25 12 0 25 10
32 25 15 33 -3 75 -32 75 -11 0 -27 -11 -36 -25z m56 -25 c0 -30 -21 -45 -39
-27 -23 23 -4 71 25 60 8 -3 14 -18 14 -33z"/>
<path d="M2852 2678 c-7 -7 -12 -24 -12 -38 0 -14 5 -31 12 -38 15 -15 45 -16
54 -1 4 7 0 9 -13 5 -31 -10 -49 18 -34 50 7 17 17 24 26 20 8 -3 15 -1 15 4
0 14 -34 12 -48 -2z"/>
<path d="M2932 2678 c-7 -7 -12 -24 -12 -38 0 -14 5 -31 12 -38 15 -15 45 -15
54 0 4 6 3 8 -4 5 -15 -10 -42 3 -42 19 0 9 11 14 30 14 33 0 35 3 20 31 -12
21 -40 25 -58 7z m46 -16 c2 -7 -6 -12 -17 -12 -21 0 -27 11 -14 24 9 9 26 2
31 -12z"/>
<path d="M3027 2683 c-14 -13 -6 -42 13 -48 11 -3 20 -13 20 -22 0 -12 -6 -14
-27 -8 -22 5 -25 4 -16 -6 15 -15 63 -3 63 16 0 8 -11 22 -25 31 -25 16 -25
40 1 30 8 -3 14 -1 14 4 0 11 -33 14 -43 3z"/>
<path d="M3107 2683 c-14 -13 -6 -42 13 -48 11 -3 20 -13 20 -22 0 -12 -6 -14
-27 -8 -22 5 -25 4 -16 -6 15 -15 63 -3 63 16 0 8 -11 22 -25 31 -25 16 -25
40 1 30 8 -3 14 -1 14 4 0 11 -33 14 -43 3z"/>
<path d="M3184 2665 c-15 -23 -15 -27 0 -50 9 -14 25 -25 36 -25 12 0 25 10
32 25 15 33 -3 75 -32 75 -11 0 -27 -11 -36 -25z m56 -25 c0 -30 -21 -45 -39
-27 -23 23 -4 71 25 60 8 -3 14 -18 14 -33z"/>
<path d="M3280 2639 c0 -27 5 -49 10 -49 6 0 10 14 10 32 0 17 7 39 15 48 15
16 14 18 -10 18 -23 0 -25 -4 -25 -49z"/>
<path d="M693 2606 c3 -7 0 -19 -6 -26 -9 -10 -9 -11 3 -8 18 5 26 48 10 48
-7 0 -10 -6 -7 -14z"/>
<path d="M515 2320 c-3 -5 -1 -10 4 -10 6 0 11 -21 11 -49 0 -39 -4 -51 -17
-54 -10 -3 0 -5 22 -6 32 0 36 2 23 10 -14 8 -18 23 -18 64 0 51 -10 69 -25
45z"/>
<path d="M602 2318 c-7 -7 -12 -31 -12 -54 0 -82 62 -86 68 -5 4 59 -25 90
-56 59z m48 -53 c0 -38 -20 -61 -38 -43 -15 15 -15 71 0 86 18 18 38 -5 38
-43z"/>
<path d="M741 2311 c-26 -49 0 -127 35 -105 28 16 38 59 22 91 -16 34 -43 41
-57 14z m49 -46 c0 -18 -7 -38 -15 -45 -12 -10 -16 -8 -25 15 -13 33 -13 42 1
66 15 29 39 6 39 -36z"/>
<path d="M842 2318 c-28 -36 -20 -102 14 -115 22 -8 44 22 44 60 0 54 -33 85
-58 55z m42 -32 c3 -14 1 -37 -4 -51 -9 -23 -13 -25 -25 -15 -18 15 -20 71 -3
88 15 15 24 8 32 -22z"/>
<path d="M931 2311 c-26 -49 0 -127 35 -105 28 16 38 59 22 91 -16 34 -43 41
-57 14z m49 -46 c0 -18 -7 -38 -15 -45 -12 -10 -16 -8 -25 15 -13 33 -13 42 1
66 15 29 39 6 39 -36z"/>
<path d="M693 2206 c3 -7 0 -19 -6 -26 -9 -10 -9 -11 3 -8 18 5 26 48 10 48
-7 0 -10 -6 -7 -14z"/>
<path d="M72 2168 c-35 -35 14 -82 63 -60 17 8 25 20 25 37 0 14 -5 25 -11 25
-5 0 -8 -4 -5 -9 9 -14 -4 -41 -20 -41 -9 0 -14 11 -14 30 0 31 -17 39 -38 18z
m28 -28 c0 -21 -15 -27 -25 -10 -7 12 2 30 16 30 5 0 9 -9 9 -20z"/>
<path d="M63 2074 c-14 -38 49 -71 83 -43 16 13 19 45 4 54 -6 4 -9 -4 -7 -17
2 -19 -3 -24 -30 -26 -32 -3 -38 3 -34 36 3 18 -9 15 -16 -4z"/>
<path d="M72 1988 c-5 -7 -10 -25 -10 -40 0 -27 3 -28 49 -28 27 0 49 5 49 10
0 6 -18 10 -39 10 -24 0 -41 5 -44 14 -8 20 2 26 45 26 21 0 38 5 38 10 0 14
-76 12 -88 -2z"/>
<path d="M67 1883 c-10 -10 -8 -41 3 -48 6 -4 9 3 7 16 -3 34 17 33 30 -2 16
-42 48 -37 49 9 1 31 0 32 -41 32 -23 0 -45 -3 -48 -7z m77 -19 c4 -9 4 -19 2
-22 -10 -9 -36 8 -36 23 0 20 26 19 34 -1z"/>
<path d="M605 1880 c-3 -5 -1 -10 4 -10 6 0 11 -21 11 -49 0 -39 -4 -51 -17
-54 -10 -3 0 -5 22 -5 22 0 34 2 28 5 -9 3 -13 26 -13 64 0 45 -3 59 -14 59
-8 0 -18 -4 -21 -10z"/>
<path d="M741 1871 c-26 -49 0 -127 35 -105 28 16 38 59 22 91 -16 34 -43 41
-57 14z m49 -46 c0 -18 -7 -38 -15 -45 -12 -10 -16 -8 -25 15 -13 33 -13 42 1
66 15 29 39 6 39 -36z"/>
<path d="M842 1878 c-28 -36 -20 -102 14 -115 22 -8 44 22 44 60 0 54 -33 85
-58 55z m42 -32 c3 -14 1 -37 -4 -51 -9 -23 -13 -25 -25 -15 -18 15 -20 71 -3
88 15 15 24 8 32 -22z"/>
<path d="M931 1871 c-26 -49 0 -127 35 -105 28 16 38 59 22 91 -16 34 -43 41
-57 14z m49 -46 c0 -18 -7 -38 -15 -45 -12 -10 -16 -8 -25 15 -13 33 -13 42 1
66 15 29 39 6 39 -36z"/>
<path d="M80 1790 c-10 -6 -15 -27 -15 -65 l-1 -55 51 2 c40 1 43 2 15 5 -69
9 -77 43 -9 43 21 0 39 5 39 10 0 6 -18 10 -39 10 -24 0 -41 5 -44 14 -8 20 2
26 45 26 21 0 38 5 38 10 0 13 -60 13 -80 0z"/>
<path d="M693 1766 c3 -7 0 -19 -6 -26 -9 -10 -9 -11 3 -8 18 5 26 48 10 48
-7 0 -10 -6 -7 -14z"/>
<path d="M63 1627 c2 -25 5 -27 50 -27 26 0 47 5 47 10 0 6 -16 10 -36 10 -23
0 -41 6 -49 17 -12 16 -13 15 -12 -10z"/>
<path d="M80 1562 c-44 -36 7 -90 59 -62 34 18 25 61 -15 74 -14 4 -29 0 -44
-12z m60 -17 c16 -20 4 -35 -30 -35 -30 0 -45 21 -27 39 15 15 42 14 57 -4z"/>
<path d="M22 1476 c4 -25 33 -33 93 -25 l50 6 -42 1 c-23 1 -45 7 -49 13 -4 8
-9 7 -15 -2 -8 -11 -12 -10 -25 6 -15 19 -16 19 -12 1z"/>
<path d="M750 1430 c-10 -6 -11 -10 -2 -10 8 0 12 -17 12 -49 0 -30 -5 -51
-12 -54 -7 -3 3 -5 22 -5 19 0 29 2 23 5 -9 3 -13 26 -13 64 0 60 -4 66 -30
49z"/>
<path d="M842 1428 c-28 -36 -20 -102 14 -115 22 -8 44 22 44 60 0 54 -33 85
-58 55z m42 -32 c3 -14 1 -37 -4 -51 -9 -23 -13 -25 -25 -15 -18 15 -20 71 -3
88 15 15 24 8 32 -22z"/>
<path d="M931 1421 c-26 -49 0 -127 35 -105 28 16 38 59 22 91 -16 34 -43 41
-57 14z m49 -46 c0 -18 -7 -38 -15 -45 -12 -10 -16 -8 -25 15 -13 33 -13 42 1
66 15 29 39 6 39 -36z"/>
<path d="M63 1407 c2 -26 4 -27 52 -25 40 1 43 2 15 5 -20 3 -42 13 -52 26
l-16 21 1 -27z"/>
<path d="M2772 1343 c1 -67 1 -67 7 -18 l6 50 19 -45 19 -45 16 45 16 45 6
-50 c6 -49 6 -49 7 18 1 37 -2 67 -7 67 -4 0 -14 -20 -21 -46 -14 -50 -22 -48
-40 9 -18 57 -30 44 -28 -30z"/>
<path d="M2912 1368 c-7 -7 -12 -24 -12 -38 0 -14 5 -31 12 -38 15 -15 45 -15
54 0 4 6 3 8 -4 5 -15 -10 -42 3 -42 19 0 9 11 14 30 14 33 0 35 3 20 31 -12
21 -40 25 -58 7z m46 -16 c2 -7 -6 -12 -17 -12 -21 0 -27 11 -14 24 9 9 26 2
31 -12z"/>
<path d="M3000 1328 c0 -27 5 -48 10 -48 6 0 10 18 10 41 0 33 3 40 18 37 11
-2 19 -16 23 -43 l6 -40 2 36 c1 36 21 66 34 52 4 -3 7 -24 7 -45 0 -21 5 -38
10 -38 11 0 13 70 2 86 -4 6 -33 10 -64 10 l-58 -1 0 -47z"/>
<path d="M3166 1364 c-9 -8 -16 -24 -16 -34 0 -22 25 -50 45 -50 20 0 45 28
45 50 0 22 -25 50 -45 50 -7 0 -21 -7 -29 -16z m54 -33 c0 -23 -19 -41 -36
-34 -17 6 -18 60 -1 66 16 6 37 -12 37 -32z"/>
<path d="M3260 1328 c0 -27 5 -48 10 -48 6 0 10 16 10 36 0 23 6 41 17 49 16
12 15 13 -10 12 -25 -2 -27 -5 -27 -49z"/>
<path d="M3320 1375 c0 -3 7 -22 15 -42 20 -47 19 -70 -2 -83 -16 -10 -16 -10
2 -8 14 2 26 20 42 63 25 68 27 79 14 70 -5 -3 -12 -19 -16 -35 -8 -36 -21
-31 -30 10 -4 17 -11 30 -16 30 -5 0 -9 -2 -9 -5z"/>
<path d="M63 1334 c-14 -38 49 -71 83 -43 16 13 19 45 4 54 -6 3 -7 -1 -4 -10
6 -16 -11 -45 -27 -45 -5 0 -9 14 -9 30 0 23 -4 30 -20 30 -11 0 -23 -7 -27
-16z m37 -21 c0 -25 -1 -26 -16 -11 -9 9 -13 21 -10 27 13 20 26 11 26 -16z"/>
<path d="M36 1244 c-3 -9 -6 -27 -6 -40 0 -23 3 -24 65 -24 37 0 65 4 65 10 0
6 -11 10 -24 10 -18 0 -25 7 -29 30 -6 25 -11 30 -36 30 -17 0 -31 -6 -35 -16z
m52 -6 c21 -21 13 -38 -18 -38 -18 0 -30 5 -30 13 0 13 19 37 30 37 3 0 11 -5
18 -12z"/>
<path d="M845 1040 c-3 -5 -1 -10 4 -10 6 0 11 -21 11 -49 0 -39 -4 -51 -17
-54 -10 -3 0 -5 22 -6 32 0 36 2 23 10 -14 8 -18 23 -18 64 0 51 -10 69 -25
45z"/>
<path d="M931 1031 c-26 -49 0 -127 35 -105 28 16 38 59 22 91 -16 34 -43 41
-57 14z m49 -46 c0 -18 -7 -38 -15 -45 -12 -10 -16 -8 -25 15 -13 33 -13 42 1
66 15 29 39 6 39 -36z"/>
<path d="M925 530 c-3 -5 -1 -10 4 -10 6 0 11 -21 11 -49 0 -39 -4 -51 -17
-54 -10 -3 0 -5 22 -6 32 0 36 2 23 10 -14 8 -18 23 -18 64 0 51 -10 69 -25
45z"/>
<path d="M1010 526 c-6 -8 -10 -25 -8 -38 2 -18 9 -23 31 -23 15 1 27 -4 27
-11 0 -19 -26 -35 -45 -27 -13 4 -16 3 -11 -5 10 -17 41 -15 56 3 6 8 12 30
13 49 1 54 -35 85 -63 52z m50 -32 c0 -8 -2 -14 -4 -14 -2 0 -11 -3 -19 -6
-19 -7 -31 24 -16 42 13 16 39 1 39 -22z"/>
<path d="M1104 525 c-4 -8 -3 -22 0 -31 3 -8 1 -25 -5 -36 -15 -29 10 -53 45
-44 26 6 36 38 16 51 -7 4 -6 13 1 26 7 15 7 24 -2 35 -15 18 -48 18 -55 -1z
m44 -23 c2 -12 -1 -22 -6 -22 -15 0 -34 28 -27 40 10 17 30 6 33 -18z m-1 -43
c14 -14 6 -39 -12 -39 -18 0 -28 17 -21 35 6 18 18 19 33 4z"/>
<path d="M1201 521 c-26 -49 0 -127 35 -105 28 16 38 59 22 91 -16 34 -43 41
-57 14z m49 -46 c0 -18 -7 -38 -15 -45 -12 -10 -16 -8 -25 15 -13 33 -13 42 1
66 15 29 39 6 39 -36z"/>
<path d="M1850 530 c-13 -8 -12 -10 3 -10 14 0 17 -9 17 -45 0 -31 -5 -47 -17
-54 -14 -8 -10 -10 22 -10 22 1 32 3 23 6 -15 4 -18 16 -18 64 0 60 -4 66 -30
49z"/>
<path d="M1934 526 c-3 -8 -4 -25 -2 -38 2 -18 9 -23 31 -23 15 1 27 -2 27 -6
0 -16 -32 -38 -47 -32 -11 4 -14 3 -9 -5 11 -19 44 -14 56 7 14 27 13 84 -2
99 -16 16 -47 15 -54 -2z m45 -15 c8 -14 7 -22 -4 -31 -17 -14 -35 -5 -35 19
0 34 24 42 39 12z"/>
<path d="M2030 526 c-6 -8 -10 -25 -8 -38 2 -18 9 -23 31 -23 15 1 27 -4 27
-11 0 -19 -26 -35 -45 -27 -13 4 -16 3 -11 -5 10 -17 41 -15 56 3 6 8 12 30
13 49 1 54 -35 85 -63 52z m50 -32 c0 -8 -2 -14 -4 -14 -2 0 -11 -3 -19 -6
-19 -7 -31 24 -16 42 13 16 39 1 39 -22z"/>
<path d="M2132 528 c-28 -36 -20 -102 14 -115 22 -8 44 22 44 60 0 54 -33 85
-58 55z m42 -32 c3 -14 1 -37 -4 -51 -9 -23 -13 -25 -25 -15 -18 15 -20 71 -3
88 15 15 24 8 32 -22z"/>
<path d="M2785 531 c-4 -7 3 -10 17 -8 35 3 34 -29 -2 -74 l-31 -39 43 1 c30
2 35 3 15 6 l-27 4 20 30 c27 37 24 83 -7 87 -11 2 -24 -2 -28 -7z"/>
<path d="M2881 521 c-26 -49 0 -127 35 -105 28 16 38 59 22 91 -16 34 -43 41
-57 14z m49 -46 c0 -18 -7 -38 -15 -45 -12 -10 -16 -8 -25 15 -13 33 -13 42 1
66 15 29 39 6 39 -36z"/>
<path d="M2982 528 c-28 -36 -20 -102 14 -115 22 -8 44 22 44 60 0 54 -33 85
-58 55z m42 -32 c3 -14 1 -37 -4 -51 -9 -23 -13 -25 -25 -15 -18 15 -20 71 -3
88 15 15 24 8 32 -22z"/>
<path d="M3071 521 c-26 -49 0 -127 35 -105 28 16 38 59 22 91 -16 34 -43 41
-57 14z m49 -46 c0 -18 -7 -38 -15 -45 -12 -10 -16 -8 -25 15 -13 33 -13 42 1
66 15 29 39 6 39 -36z"/>
<path d="M3627 533 c-14 -13 -7 -25 8 -13 8 6 19 9 25 5 17 -11 11 -42 -15
-73 -14 -17 -25 -33 -25 -36 0 -3 17 -5 38 -5 28 2 31 3 10 6 l-27 4 25 36
c13 20 24 41 24 47 0 27 -45 47 -63 29z"/>
<path d="M3720 521 c-23 -44 -5 -111 30 -111 23 0 40 28 40 65 0 37 -17 65
-40 65 -11 0 -24 -9 -30 -19z m45 -47 c0 -37 -4 -49 -15 -49 -16 0 -27 63 -16
92 12 31 31 6 31 -43z"/>
<path d="M3825 530 c-3 -5 -1 -10 4 -10 6 0 11 -21 11 -49 0 -39 -4 -51 -17
-54 -10 -3 0 -5 22 -5 22 0 34 2 28 5 -9 3 -13 26 -13 64 0 45 -3 59 -14 59
-8 0 -18 -4 -21 -10z"/>
<path d="M3910 521 c-23 -44 -5 -111 30 -111 23 0 40 28 40 65 0 37 -17 65
-40 65 -11 0 -24 -9 -30 -19z m45 -47 c0 -37 -4 -49 -15 -49 -16 0 -27 63 -16
92 12 31 31 6 31 -43z"/>
<path d="M2510 163 c1 -5 7 -19 15 -33 8 -14 14 -40 15 -57 0 -18 5 -33 10
-33 6 0 10 11 10 25 0 14 7 42 15 62 8 20 13 38 10 41 -2 3 -11 -10 -19 -28
l-14 -34 -16 32 c-16 31 -26 41 -26 25z"/>
<path d="M2612 128 c-15 -15 -16 -60 0 -76 15 -15 45 -15 54 0 5 8 2 9 -11 5
-18 -7 -45 8 -45 24 0 5 14 9 31 9 26 0 30 3 27 23 -3 25 -36 35 -56 15z m46
-16 c2 -7 -7 -12 -23 -12 -24 0 -26 2 -15 15 14 17 31 16 38 -3z"/>
<path d="M2700 130 c-12 -9 -10 -10 9 -8 32 4 37 -14 9 -27 -13 -6 -23 -19
-23 -30 0 -16 7 -20 33 -20 33 -1 33 -1 30 45 -2 36 -7 45 -23 48 -11 1 -27
-3 -35 -8z m50 -49 c0 -15 -28 -33 -40 -26 -8 5 -8 11 1 21 13 15 39 19 39 5z"/>
<path d="M2790 88 c0 -27 5 -48 10 -48 6 0 10 16 10 36 0 23 6 41 17 49 16 12
15 13 -10 12 -25 -2 -27 -5 -27 -49z"/>
<path d="M2853 124 c-6 -16 13 -38 40 -47 21 -7 -5 -28 -26 -21 -17 5 -19 3
-11 -6 17 -18 49 -8 52 17 2 14 -3 23 -17 28 -12 3 -21 13 -21 21 0 11 6 13
21 9 15 -5 19 -4 15 4 -11 17 -46 13 -53 -5z"/>
</g>
</svg>
